<svg width="93" height="42" viewBox="0 0 93 42" fill="none" xmlns="http://www.w3.org/2000/svg">
<g clip-path="url(#clip0_128_1110)">
<path d="M22.1464 2V8.1258H14.3706V31.5573H7.81045V8.1258H0V2H22.1464Z" fill="white"/>
<path d="M39.5539 21.8886V23.315H25.5653C25.986 25.7669 27.9308 26.8617 30.5511 26.8617C32.5692 26.8177 34.5335 26.2027 36.2159 25.0884L38.5313 29.9034C36.1101 31.4037 33.3153 32.1933 30.4662 32.1818C23.906 32.1818 19.5609 28.0877 19.5609 21.8809C19.5609 15.2925 23.8713 11.4721 29.8757 11.4721C35.749 11.4605 39.5539 14.8337 39.5539 21.8886ZM25.6039 19.5755H33.3797C33.2948 17.2933 31.7319 15.9864 29.6596 15.9864C27.5064 15.9903 25.9011 17.0312 25.6039 19.5678V19.5755Z" fill="white"/>
<path d="M54.7426 11.4604V17.8368H54.1908C49.9229 17.8368 48.1902 19.3981 48.1902 24.3905V31.5688H41.8076V12.0618H48.0629V16.0326H48.1478C49.3054 12.8213 51.5282 11.472 54.6153 11.472L54.7426 11.4604Z" fill="white"/>
<path d="M69.1056 11.4604V17.8368H68.5576C64.2896 17.8368 62.5531 19.3981 62.5531 24.3905V31.5688H56.1743V12.0618H62.4296V16.0326H62.5145C63.6722 12.8213 65.8949 11.472 68.9782 11.472L69.1056 11.4604Z" fill="white"/>
<path d="M86.5363 12.0503H93L80.0263 40.0038H73.6012L78.5059 29.6991L69.7538 12.0503H77.1089L81.6741 22.8177L86.5363 12.0503Z" fill="white"/>
</g>
<defs>
<clipPath id="clip0_128_1110">
<rect width="93" height="38" fill="white" transform="translate(0 2)"/>
</clipPath>
</defs>
</svg>
