<svg width="105" height="42" viewBox="0 0 105 42" fill="none" xmlns="http://www.w3.org/2000/svg">
<g clip-path="url(#clip0_128_1110)">
<path d="M22.6921 2V8.28525H14.7243V32.3311H8.01206V8.28525H0V2H22.6921Z" fill="white"/>
<path d="M40.5312 22.41V23.8837H26.1932C26.6278 26.3962 28.6076 27.5075 31.3038 27.5075C33.3707 27.4659 35.3837 26.8406 37.1107 25.7036L39.4929 30.6441C37.0107 32.1855 34.1448 32.9962 31.2233 32.9834C24.5111 32.9834 20.0483 28.7798 20.0483 22.41C20.0483 15.6496 24.4748 11.7078 30.6157 11.7078C36.6318 11.7078 40.5312 15.1745 40.5312 22.41ZM26.2455 20.0264H34.2133C34.1288 17.687 32.5272 16.3422 30.4024 16.3422C28.1851 16.3422 26.5392 17.4253 26.2455 20.0264Z" fill="white"/>
<path d="M56.0926 11.7078V18.2507H55.5292C51.155 18.2507 49.3803 19.8613 49.3803 24.9668V32.3312H42.8411V12.3117H49.2515V16.3865H49.336C50.5071 13.0929 52.8008 11.7078 55.9638 11.7078H56.0926Z" fill="white"/>
<path d="M70.8129 11.7078V18.2507H70.2495C65.8753 18.2507 64.1006 19.8613 64.1006 24.9668V32.3312H57.5574V12.3117H63.9678V16.3865H64.0725C65.2395 13.0929 67.5373 11.7078 70.6962 11.7078H70.8129Z" fill="white"/>
<path d="M79.0503 2.04431V8.61545H72.0362V2.04431H79.0503ZM72.2978 32.3311V12.3117H78.837V32.3311H72.2978Z" fill="white"/>
<path d="M97.3762 12.3116H104L90.7203 41H84.1368L89.163 30.4266L80.1971 12.3076H87.7344L92.4105 23.3602L97.3762 12.3116Z" fill="white"/>
</g>
<defs>
<clipPath id="clip0_128_1110">
<rect width="104" height="39" fill="white" transform="translate(0 2)"/>
</clipPath>
</defs>
</svg>
