<svg width="889" height="694" viewBox="0 0 889 694" fill="none" xmlns="http://www.w3.org/2000/svg">
<g clip-path="url(#clip0_16_813)">
<path d="M754.457 47.7988C767.755 41.3948 783.245 41.3948 796.543 47.7988L1209.35 246.598C1222.65 253.002 1232.31 265.113 1235.59 279.503L1337.55 726.2C1340.83 740.589 1337.39 755.692 1328.18 767.231L1042.51 1125.45C1033.31 1136.99 1019.35 1143.72 1004.59 1143.72H546.408C531.648 1143.72 517.691 1136.99 508.489 1125.45L222.815 767.231C213.613 755.692 210.166 740.589 213.45 726.2L315.406 279.502C318.69 265.113 328.348 253.002 341.646 246.598L754.457 47.7988Z" stroke="#8E75FF" stroke-width="3"/>
</g>
<defs>
<clipPath id="clip0_16_813">
<rect width="889" height="694" fill="white"/>
</clipPath>
</defs>
</svg>
