<svg width="60" height="60" viewBox="0 0 60 60" fill="none" xmlns="http://www.w3.org/2000/svg">
<circle cx="30" cy="30" r="30" fill="#0E3C2F"/>
<path d="M33 17V22.5958H25.6268V44H19.4062V22.5958H12V17H33Z" fill="white"/>
<path d="M49 34.5565V35.8652H35.7062C36.106 38.1146 37.9542 39.1191 40.4443 39.1191C42.3622 39.0786 44.2289 38.5145 45.8278 37.4921L48.0282 41.9096C45.7272 43.2861 43.0712 44.0104 40.3636 43.9999C34.1293 43.9999 30 40.2438 30 34.5495C30 28.505 34.0963 25 39.8025 25C45.3841 24.9894 49 28.0841 49 34.5565ZM35.7429 32.4344H43.1324C43.0517 30.3406 41.5665 29.1416 39.5972 29.1416C37.5509 29.1452 36.0253 30.1001 35.7429 32.4274V32.4344Z" fill="#8CEC80"/>
</svg>
