<svg width="49" height="49" viewBox="0 0 49 49" fill="none" xmlns="http://www.w3.org/2000/svg">
<rect x="0.5" y="0.5" width="48" height="48" rx="12.5" fill="#ABABAB"/>
<path d="M25 35C19.4772 35 15 30.5228 15 25C15 19.4772 19.4772 15 25 15C30.5228 15 35 19.4772 35 25C34.9939 30.5203 30.5203 34.9939 25 35ZM17 25.172C17.0473 29.5732 20.6411 33.1095 25.0425 33.086C29.444 33.0622 32.9995 29.4875 32.9995 25.086C32.9995 20.6845 29.444 17.1098 25.0425 17.086C20.6411 17.0625 17.0473 20.5988 17 25V25.172ZM27 30H24V26H23V24H26V28H27V30ZM26 22H24V20H26V22Z" fill="white"/>
<rect x="0.5" y="0.5" width="48" height="48" rx="12.5" stroke="#ABABAB"/>
</svg>
