<svg width="49" height="49" viewBox="0 0 49 49" fill="none" xmlns="http://www.w3.org/2000/svg">
<rect x="0.5" y="0.5" width="48" height="48" rx="12.5" fill="#00A3FF"/>
<path d="M24.5 35C19.893 35 16 32.8632 16 30.3338V18.6662C16 16.1368 19.893 14 24.5 14C29.107 14 33 16.1368 33 18.6662V30.3338C33 32.8632 29.1081 35 24.5 35ZM18.125 27.545V30.3369C18.1994 30.9176 20.5783 32.67 24.5 32.67C28.4217 32.67 30.8017 30.9123 30.875 30.3307V27.545C28.9406 28.6532 26.7354 29.215 24.5 29.1693C22.2646 29.2151 20.0594 28.6532 18.125 27.545ZM18.125 21.708V24.5C18.1994 25.0806 20.5783 26.8331 24.5 26.8331C28.4217 26.8331 30.8017 25.0754 30.875 24.4937V21.708C28.9407 22.8166 26.7355 23.3789 24.5 23.3334C22.2645 23.3789 20.0592 22.8167 18.125 21.708ZM24.5 16.3331C20.5773 16.3331 18.1983 18.0908 18.125 18.6736C18.1994 19.25 20.5804 20.9993 24.5 20.9993C28.4196 20.9993 30.8017 19.2416 30.875 18.6599C30.8006 18.0813 28.4196 16.3331 24.5 16.3331Z" fill="white"/>
<rect x="0.5" y="0.5" width="48" height="48" rx="12.5" stroke="#00A3FF"/>
</svg>
