<svg width="49" height="49" viewBox="0 0 49 49" fill="none" xmlns="http://www.w3.org/2000/svg">
<rect x="0.5" y="0.5" width="48" height="48" rx="12.5" fill="#00A3FF"/>
<path d="M26.1111 22.7778V27.2222H32.7778V22.7778H26.1111ZM23.8889 22.7778H17.2222V27.2222H23.8889V22.7778ZM26.1111 32.7778H32.7778V29.4444H26.1111V32.7778ZM23.8889 32.7778V29.4444H17.2222V32.7778H23.8889ZM26.1111 17.2222V20.5556H32.7778V17.2222H26.1111ZM23.8889 17.2222H17.2222V20.5556H23.8889V17.2222ZM32.7778 15C34.0051 15 35 15.9949 35 17.2222V32.7778C35 34.0051 34.0051 35 32.7778 35H17.2222C15.9949 35 15 34.0051 15 32.7778V17.2222C15 15.9949 15.9949 15 17.2222 15H32.7778Z" fill="white"/>
<rect x="0.5" y="0.5" width="48" height="48" rx="12.5" stroke="#00A3FF"/>
</svg>
