<svg width="49" height="49" viewBox="0 0 49 49" fill="none" xmlns="http://www.w3.org/2000/svg">
<rect x="0.5" y="0.5" width="48" height="48" rx="12.5" fill="#00A3FF"/>
<path d="M34.5 35H14.5C13.1193 35 12 33.8807 12 32.5V17.5C12 16.1193 13.1193 15 14.5 15H34.5C35.8807 15 37 16.1193 37 17.5V32.5C37 33.8807 35.8807 35 34.5 35ZM14.5 17.5V32.5H34.5V17.5H14.5ZM32 30H24.5V27.5H32V30ZM18.7675 30L17 28.2325L19.8663 25.3663L17 22.5L18.7675 20.7325L23.4013 25.3663L18.7688 30H18.7675Z" fill="white"/>
<rect x="0.5" y="0.5" width="48" height="48" rx="12.5" stroke="#00A3FF"/>
</svg>
