<svg width="21" height="22" viewBox="0 0 21 22" fill="none" xmlns="http://www.w3.org/2000/svg">
<path d="M10.5024 21.5479C7.73494 21.5479 7.40869 21.5327 6.32869 21.4837C5.48648 21.455 4.65518 21.2774 3.87057 20.9587C2.51304 20.4108 1.4396 19.2972 0.911816 17.8892C0.616286 17.0726 0.456886 16.2098 0.440441 15.3377C0.377441 14.22 0.377441 13.8537 0.377441 11.0059C0.377441 8.12769 0.392066 7.79169 0.440441 6.67753C0.457246 5.80663 0.61664 4.94503 0.911816 4.12953C1.43903 2.71964 2.51421 1.60506 3.87394 1.05886C4.65992 0.751095 5.49096 0.585361 6.33094 0.568859C7.40532 0.505859 7.75857 0.505859 10.5024 0.505859C13.2924 0.505859 13.6131 0.521026 14.6762 0.568859C15.5184 0.585504 16.3516 0.751221 17.1399 1.05886C18.4993 1.60568 19.5743 2.72005 20.1021 4.12953C20.4026 4.95692 20.5628 5.83199 20.5757 6.71603C20.6387 7.83369 20.6387 8.19886 20.6387 11.0455C20.6387 13.8922 20.6229 14.2655 20.5757 15.3704C20.5589 16.2433 20.3992 17.1068 20.1032 17.9242C19.5741 19.3332 18.499 20.4472 17.1399 20.9949C16.3527 21.3007 15.5212 21.466 14.6807 21.4837C13.6063 21.5479 13.2542 21.5479 10.5024 21.5479ZM10.4642 2.35269C7.71244 2.35269 7.42669 2.36669 6.35232 2.41686C5.71105 2.42567 5.07598 2.54839 4.47469 2.77969C3.58679 3.13204 2.8842 3.85768 2.54082 4.77703C2.31606 5.40737 2.1977 6.07317 2.19094 6.74519C2.13132 7.87569 2.13132 8.17203 2.13132 11.0059C2.13132 13.8059 2.14144 14.1454 2.19094 15.2689C2.20101 15.9341 2.3193 16.5928 2.54082 17.2172C2.8847 18.1359 3.58717 18.861 4.47469 19.2134C5.07557 19.4462 5.7109 19.569 6.35232 19.5762C7.44132 19.6415 7.72819 19.6415 10.4642 19.6415C13.2238 19.6415 13.5096 19.6275 14.5749 19.5762C15.2166 19.5681 15.8522 19.4454 16.4537 19.2134C17.3362 18.858 18.0342 18.1345 18.3774 17.2195C18.6018 16.5886 18.7201 15.9226 18.7273 15.2502H18.7397C18.7881 14.1349 18.7881 13.8374 18.7881 10.9872C18.7881 8.13703 18.7757 7.83719 18.7273 6.72303C18.7172 6.05855 18.5989 5.40062 18.3774 4.77703C18.035 3.86069 17.3369 3.13587 16.4537 2.77969C15.8523 2.54722 15.2167 2.42447 14.5749 2.41686C13.4871 2.35269 13.2024 2.35269 10.4642 2.35269ZM10.5024 16.3947C8.39868 16.3961 6.50129 15.083 5.69516 13.0679C4.88904 11.0527 5.33296 8.73241 6.8199 7.18906C8.30684 5.64572 10.5439 5.18334 12.4878 6.01758C14.4317 6.85182 15.6995 8.81835 15.6999 11C15.6968 13.9763 13.3724 16.3889 10.5024 16.3947ZM10.5024 7.49769C8.63848 7.49769 7.12744 9.0647 7.12744 10.9977C7.12744 12.9307 8.63848 14.4977 10.5024 14.4977C12.3664 14.4977 13.8774 12.9307 13.8774 10.9977C13.8731 9.06656 12.3646 7.50218 10.5024 7.49769ZM15.9024 6.66586C15.2335 6.66328 14.693 6.09955 14.6942 5.40587C14.6954 4.71219 15.238 4.15053 15.9069 4.15053C16.5758 4.15053 17.1184 4.71218 17.1197 5.40586C17.12 5.74053 16.9918 6.06155 16.7634 6.29798C16.535 6.53441 16.2252 6.66679 15.9024 6.66586Z" fill="white"/>
</svg>
