<svg width="23" height="24" viewBox="0 0 23 24" fill="none" xmlns="http://www.w3.org/2000/svg">
<path d="M0.252441 12.0025C0.25375 17.7418 4.27814 22.6285 9.74407 23.528V15.3741H6.88994V12.0025H9.74744V9.4358C9.6197 8.2196 10.0203 7.00749 10.8405 6.12822C11.6608 5.24895 12.8157 4.79365 13.9921 4.8858C14.8364 4.89994 15.6787 4.97793 16.5121 5.11913V7.98797H15.0901C14.6005 7.92147 14.1083 8.08914 13.7522 8.44375C13.396 8.79835 13.2144 9.3015 13.2586 9.81147V12.0025H16.3759L15.8776 15.3753H13.2586V23.528C19.1699 22.5592 23.315 16.9605 22.6911 10.7881C22.0672 4.61556 16.8926 0.0300503 10.9161 0.353508C4.9396 0.676965 0.253391 5.79616 0.252441 12.0025Z" fill="white"/>
</svg>
