<svg width="23" height="24" viewBox="0 0 23 24" fill="none" xmlns="http://www.w3.org/2000/svg">
<path d="M11.5 23.6668C5.2868 23.6668 0.25 18.4435 0.25 12.0002C0.25 5.55684 5.2868 0.333496 11.5 0.333496C17.7132 0.333496 22.75 5.55684 22.75 12.0002C22.7432 18.4406 17.7104 23.6598 11.5 23.6668ZM6.01 19.636L6.00438 19.6477C8.57281 21.643 11.9605 22.1002 14.9358 20.8528C14.5093 18.4743 13.8771 16.1405 13.0469 13.8797C11.1399 14.5692 9.39649 15.672 7.93262 17.1148C7.21119 17.8232 6.58665 18.6306 6.07638 19.5147L6.0685 19.5275V19.5158L6.04825 19.5567L6.03475 19.58L6.02688 19.5952L6.00775 19.6372L6.01 19.636ZM16.8764 13.2193C16.3225 13.2201 15.7693 13.2591 15.2204 13.336C15.9372 15.4133 16.5013 17.5439 16.9079 19.7095C18.8197 18.2803 20.1192 16.1346 20.5304 13.728C19.3402 13.3875 18.1111 13.2152 16.8764 13.2158V13.2193ZM2.29413 11.9477V12.013C2.29618 14.2607 3.06309 16.4355 4.45975 18.1543C6.26907 15.2558 8.94543 13.0528 12.0782 11.8835L12.2121 11.8438C12.013 11.3877 11.8262 10.9805 11.6395 10.6002C8.63792 11.4729 5.53739 11.9261 2.42013 11.9477H2.29413ZM16.5243 11.2407C17.9202 11.246 19.313 11.3779 20.6868 11.635C20.6152 9.66148 19.9495 7.76073 18.7833 6.1995C17.4223 7.77792 15.7283 9.00922 13.8333 9.7975L13.8659 9.7835L13.831 9.79866C14.0324 10.2338 14.209 10.641 14.3564 11.0038C14.3913 11.0902 14.4205 11.1648 14.4475 11.2372L14.4936 11.3538C15.1679 11.2762 15.8459 11.2385 16.5243 11.2407ZM7.42412 3.45666C4.9776 4.70893 3.19321 7.02267 2.55288 9.77299C5.17455 9.73099 7.78364 9.38744 10.3322 8.74866H10.3469H10.3637L10.375 8.7335L10.4358 8.71833H10.4425L10.4875 8.709H10.4976H10.5055L10.5291 8.702L10.5741 8.69033L10.6 8.67866L10.6248 8.67166H10.636H10.6472C9.14762 5.9335 7.59512 3.70166 7.423 3.45666H7.42412ZM11.5 2.47896C10.8842 2.47739 10.2696 2.53795 9.66513 2.65983C10.8437 4.35334 11.9252 6.11728 12.904 7.9425C14.6569 7.29506 16.2202 6.19199 17.4445 4.73883C15.7825 3.28119 13.6767 2.48064 11.5 2.47896Z" fill="white"/>
</svg>
