<svg width="25" height="21" viewBox="0 0 25 21" fill="none" xmlns="http://www.w3.org/2000/svg">
<path d="M21.4941 3.80249C22.5026 3.17726 23.2572 2.19277 23.617 1.03282C22.6694 1.61593 21.6326 2.02668 20.5514 2.24732C19.0524 0.602939 16.6775 0.202771 14.7536 1.27042C12.8297 2.33807 11.8332 4.60923 12.3209 6.81482C8.43921 6.61273 4.82274 4.71123 2.3714 1.58349C1.09209 3.87181 1.74585 6.79707 3.8654 8.26849C3.09895 8.24294 2.34949 8.02774 1.67952 7.64082C1.67952 7.66182 1.67952 7.68282 1.67952 7.70382C1.67997 10.0875 3.29994 12.1408 5.5529 12.6132C4.84197 12.8137 4.09626 12.8433 3.37265 12.6995C4.00625 14.738 5.81789 16.1345 7.88277 16.1762C6.17258 17.5681 4.06056 18.323 1.88652 18.3193C1.50118 18.3199 1.11614 18.2969 0.733398 18.2505C2.94109 19.7217 5.51056 20.5026 8.13477 20.4998C11.7857 20.5258 15.2943 19.0332 17.8758 16.3558C20.4574 13.6785 21.8964 10.0398 21.871 6.25366C21.871 6.03666 21.8661 5.82082 21.8564 5.60616C22.8019 4.89753 23.6179 4.01967 24.2661 3.01382C23.3853 3.41873 22.4509 3.68457 21.4941 3.80249Z" fill="white"/>
</svg>
