<svg width="14" height="20" viewBox="0 0 14 20" fill="none" xmlns="http://www.w3.org/2000/svg">
<path d="M4 13H7M4 13C2.34315 13 1 14.3431 1 16C1 17.6569 2.34315 19 4 19C5.65685 19 7 17.6569 7 16V13M4 13C2.34315 13 1 11.6569 1 10C1 8.34315 2.34315 7 4 7M7 13V10M4 7H7M4 7C2.34315 7 1 5.65685 1 4C1 2.34315 2.34315 1 4 1H7M7 7V10M7 7V1M7 7H10M7 10C7 11.6569 8.34315 13 10 13C11.6569 13 13 11.6569 13 10C13 8.34315 11.6569 7 10 7M7 10C7 8.34315 8.34315 7 10 7M7 1H10C11.6569 1 13 2.34315 13 4C13 5.65685 11.6569 7 10 7" stroke="white" stroke-width="1.6" stroke-linecap="round" stroke-linejoin="round"/>
</svg>
